<svg id="svg" version="1.1" xmlns="http://www.w3.org/2000/svg" xmlns:xlink="http://www.w3.org/1999/xlink" width="400" height="312.08791208791206" viewBox="0, 0, 400,312.08791208791206"><g id="svgg"><path id="path0" d="M132.183 101.620 C 129.941 102.041,129.421 102.248,126.767 103.771 C 125.989 104.217,124.221 104.852,122.840 105.182 C 119.815 105.905,118.838 106.388,117.425 107.858 C 116.833 108.474,116.244 108.977,116.115 108.977 C 113.050 108.977,101.870 121.552,100.727 126.285 C 100.606 126.787,99.877 128.572,99.108 130.250 C 96.672 135.565,94.789 151.191,95.821 157.533 C 96.016 158.735,96.322 161.334,96.501 163.308 C 96.991 168.730,97.592 171.263,99.132 174.395 C 99.892 175.941,100.859 178.002,101.282 178.977 C 101.705 179.951,102.613 181.497,103.299 182.412 C 103.986 183.326,105.058 184.951,105.682 186.022 C 106.306 187.093,107.127 188.134,107.507 188.336 C 107.886 188.538,109.110 189.568,110.226 190.625 C 111.343 191.682,113.310 193.212,114.598 194.025 C 115.886 194.837,117.532 195.975,118.255 196.552 C 119.185 197.295,120.235 197.753,121.846 198.116 C 123.989 198.600,125.450 199.209,128.565 200.920 C 133.126 203.426,152.434 202.785,156.596 199.991 C 157.455 199.414,159.141 198.634,160.343 198.256 C 163.171 197.369,165.145 196.367,166.117 195.326 C 166.544 194.867,167.695 194.066,168.673 193.544 C 169.769 192.960,170.753 192.142,171.235 191.414 C 171.665 190.764,172.672 189.620,173.473 188.871 C 174.368 188.035,175.403 186.572,176.156 185.076 C 176.830 183.737,177.888 181.938,178.506 181.078 C 179.150 180.181,179.995 178.355,180.485 176.798 C 180.955 175.305,181.885 172.982,182.551 171.636 L 183.763 169.189 182.900 168.498 C 182.425 168.118,180.809 167.414,179.309 166.934 C 177.808 166.454,175.316 165.477,173.770 164.763 C 167.828 162.020,164.332 162.924,162.981 167.554 C 162.049 170.748,161.526 171.848,159.801 174.239 C 159.119 175.183,158.120 176.654,157.579 177.506 C 156.865 178.632,156.084 179.343,154.723 180.106 C 153.692 180.684,152.132 181.709,151.254 182.385 C 148.575 184.450,147.629 184.633,140.419 184.485 C 133.598 184.345,133.487 184.320,130.669 182.310 C 129.977 181.817,128.367 180.817,127.093 180.090 C 125.374 179.108,124.490 178.354,123.668 177.171 C 123.059 176.293,122.081 175.033,121.495 174.370 C 119.971 172.646,118.847 169.872,118.218 166.276 C 117.917 164.559,117.401 161.678,117.072 159.875 C 116.396 156.175,116.250 147.598,116.799 143.794 C 117.730 137.343,119.900 130.206,121.169 129.421 C 121.356 129.306,122.279 128.171,123.219 126.899 C 124.652 124.962,125.288 124.398,127.139 123.418 C 128.354 122.775,129.953 121.801,130.692 121.254 C 133.079 119.488,133.760 119.274,137.947 118.975 C 145.550 118.431,150.923 119.265,152.893 121.293 C 153.491 121.909,154.657 122.756,155.482 123.174 C 156.905 123.895,158.626 125.542,158.626 126.182 C 158.626 126.345,159.169 127.072,159.833 127.798 C 161.203 129.296,161.740 130.268,162.530 132.686 C 163.769 136.474,167.499 136.933,173.458 134.029 C 174.489 133.527,176.034 132.932,176.893 132.708 C 180.440 131.780,182.546 130.241,181.932 129.024 C 181.698 128.560,180.983 126.599,180.344 124.666 C 179.533 122.213,178.852 120.756,178.091 119.845 C 177.491 119.127,176.672 117.898,176.272 117.115 C 175.522 115.649,174.851 114.824,173.568 113.788 C 173.162 113.461,172.366 112.600,171.798 111.875 C 171.230 111.150,170.071 110.179,169.222 109.717 C 168.373 109.255,167.321 108.407,166.883 107.834 C 165.885 106.525,164.984 106.069,162.147 105.440 C 159.756 104.909,157.756 104.034,157.085 103.224 C 155.616 101.455,138.829 100.374,132.183 101.620 M232.322 101.495 C 230.909 101.690,229.352 102.245,227.170 103.334 C 225.451 104.193,223.130 105.124,222.014 105.404 C 219.091 106.136,218.029 106.643,216.530 108.025 C 215.799 108.699,214.498 109.607,213.640 110.042 C 212.781 110.477,211.571 111.452,210.951 112.209 C 210.331 112.966,209.296 113.950,208.652 114.397 C 208.008 114.843,207.214 115.668,206.887 116.230 C 206.560 116.792,205.532 118.025,204.603 118.970 C 203.302 120.292,202.644 121.333,201.739 123.497 C 201.094 125.043,200.192 126.855,199.735 127.524 C 198.723 129.006,198.174 130.796,197.338 135.331 C 196.986 137.238,196.275 140.835,195.757 143.326 C 194.344 150.114,194.185 155.085,195.262 158.786 C 195.711 160.330,196.231 162.576,196.418 163.778 C 197.799 172.653,198.468 175.148,200.018 177.205 C 200.406 177.721,201.305 179.336,202.015 180.796 C 202.725 182.256,203.840 184.012,204.493 184.699 C 205.146 185.386,205.989 186.467,206.366 187.100 C 206.744 187.733,207.740 188.745,208.580 189.348 C 209.420 189.952,210.432 190.887,210.830 191.428 C 211.228 191.968,212.496 192.961,213.648 193.635 C 214.799 194.308,215.925 195.103,216.149 195.400 C 217.030 196.571,217.933 197.031,221.198 197.974 C 223.065 198.514,225.812 199.592,227.303 200.370 C 230.787 202.188,233.093 202.453,243.560 202.240 C 252.058 202.066,253.200 201.879,255.630 200.267 C 256.555 199.652,258.632 198.741,260.245 198.242 C 262.549 197.528,263.502 197.048,264.688 196.000 C 265.519 195.266,267.217 194.058,268.462 193.316 C 269.983 192.409,271.102 191.453,271.875 190.400 C 272.507 189.539,273.640 188.115,274.393 187.235 C 275.146 186.356,276.312 184.479,276.986 183.064 C 277.660 181.649,278.626 179.918,279.134 179.217 C 280.596 177.199,282.787 169.894,282.240 168.862 C 281.810 168.051,279.543 166.859,277.411 166.324 C 276.365 166.061,274.561 165.412,273.402 164.881 C 267.182 162.032,264.413 162.622,263.194 167.057 C 262.840 168.345,262.166 169.891,261.696 170.492 C 261.226 171.093,260.326 172.568,259.696 173.770 C 258.361 176.320,255.395 179.474,253.097 180.788 C 252.223 181.288,251.160 182.070,250.735 182.526 C 247.853 185.610,233.421 185.405,229.885 182.229 C 229.248 181.657,227.992 180.819,227.093 180.366 C 226.104 179.867,224.994 178.953,224.280 178.051 C 223.632 177.230,222.514 176.028,221.796 175.379 C 220.901 174.571,220.323 173.690,219.960 172.580 C 219.668 171.689,218.837 169.415,218.114 167.525 C 215.308 160.199,214.933 141.254,217.505 136.863 C 217.940 136.123,218.790 134.149,219.395 132.478 C 220.319 129.924,220.778 129.136,222.269 127.538 C 223.245 126.493,224.434 125.199,224.911 124.664 C 225.388 124.129,226.582 123.324,227.565 122.874 C 228.548 122.425,229.703 121.721,230.133 121.311 C 233.648 117.950,247.845 117.726,251.701 120.970 C 252.200 121.390,253.779 122.441,255.210 123.305 C 257.734 124.830,257.859 124.962,259.438 127.778 C 264.635 137.041,265.590 137.492,272.885 134.126 C 274.188 133.525,276.305 132.750,277.590 132.403 C 279.233 131.959,280.204 131.493,280.865 130.832 L 281.804 129.893 281.118 127.239 C 280.720 125.699,280.036 124.009,279.489 123.214 C 278.970 122.459,277.889 120.494,277.087 118.846 C 276.110 116.839,275.282 115.586,274.578 115.049 C 274.000 114.608,272.964 113.484,272.275 112.551 C 271.559 111.583,270.486 110.582,269.772 110.218 C 269.085 109.867,267.788 108.915,266.890 108.101 C 265.273 106.638,264.454 106.244,260.337 104.955 C 259.174 104.591,257.681 103.936,257.021 103.498 C 253.992 101.494,253.289 101.380,243.404 101.295 C 238.423 101.252,233.437 101.342,232.322 101.495 " stroke="none" fill="#373a42" fill-rule="evenodd"></path><path id="path1" d="M0.000 156.128 L 0.000 312.256 200.000 312.256 L 400.000 312.256 400.000 156.128 L 400.000 0.000 200.000 0.000 L 0.000 0.000 0.000 156.128 M154.607 102.053 C 155.746 102.428,156.861 102.955,157.085 103.224 C 157.756 104.034,159.756 104.909,162.147 105.440 C 164.984 106.069,165.885 106.525,166.883 107.834 C 167.321 108.407,168.373 109.255,169.222 109.717 C 170.071 110.179,171.230 111.150,171.798 111.875 C 172.366 112.600,173.162 113.461,173.568 113.788 C 174.851 114.824,175.522 115.649,176.272 117.115 C 176.672 117.898,177.491 119.127,178.091 119.845 C 178.852 120.756,179.533 122.213,180.344 124.666 C 180.983 126.599,181.698 128.560,181.932 129.024 C 182.546 130.241,180.440 131.780,176.893 132.708 C 176.034 132.932,174.489 133.527,173.458 134.029 C 167.499 136.933,163.769 136.474,162.530 132.686 C 161.740 130.268,161.203 129.296,159.833 127.798 C 159.169 127.072,158.626 126.345,158.626 126.182 C 158.626 125.542,156.905 123.895,155.482 123.174 C 154.657 122.756,153.491 121.909,152.893 121.293 C 150.923 119.265,145.550 118.431,137.947 118.975 C 133.760 119.274,133.079 119.488,130.692 121.254 C 129.953 121.801,128.354 122.775,127.139 123.418 C 125.288 124.398,124.652 124.962,123.219 126.899 C 122.279 128.171,121.356 129.306,121.169 129.421 C 119.900 130.206,117.730 137.343,116.799 143.794 C 116.250 147.598,116.396 156.175,117.072 159.875 C 117.401 161.678,117.917 164.559,118.218 166.276 C 118.847 169.872,119.971 172.646,121.495 174.370 C 122.081 175.033,123.059 176.293,123.668 177.171 C 124.490 178.354,125.374 179.108,127.093 180.090 C 128.367 180.817,129.977 181.817,130.669 182.310 C 133.487 184.320,133.598 184.345,140.419 184.485 C 147.629 184.633,148.575 184.450,151.254 182.385 C 152.132 181.709,153.692 180.684,154.723 180.106 C 156.084 179.343,156.865 178.632,157.579 177.506 C 158.120 176.654,159.119 175.183,159.801 174.239 C 161.526 171.848,162.049 170.748,162.981 167.554 C 164.332 162.924,167.828 162.020,173.770 164.763 C 175.316 165.477,177.808 166.454,179.309 166.934 C 180.809 167.414,182.425 168.118,182.900 168.498 L 183.763 169.189 182.551 171.636 C 181.885 172.982,180.955 175.305,180.485 176.798 C 179.995 178.355,179.150 180.181,178.506 181.078 C 177.888 181.938,176.830 183.737,176.156 185.076 C 175.403 186.572,174.368 188.035,173.473 188.871 C 172.672 189.620,171.665 190.764,171.235 191.414 C 170.753 192.142,169.769 192.960,168.673 193.544 C 167.695 194.066,166.544 194.867,166.117 195.326 C 165.145 196.367,163.171 197.369,160.343 198.256 C 159.141 198.634,157.455 199.414,156.596 199.991 C 152.434 202.785,133.126 203.426,128.565 200.920 C 125.450 199.209,123.989 198.600,121.846 198.116 C 120.235 197.753,119.185 197.295,118.255 196.552 C 117.532 195.975,115.886 194.837,114.598 194.025 C 113.310 193.212,111.343 191.682,110.226 190.625 C 109.110 189.568,107.886 188.538,107.507 188.336 C 107.127 188.134,106.306 187.093,105.682 186.022 C 105.058 184.951,103.986 183.326,103.299 182.412 C 102.613 181.497,101.705 179.951,101.282 178.977 C 100.859 178.002,99.892 175.941,99.132 174.395 C 97.592 171.263,96.991 168.730,96.501 163.308 C 96.322 161.334,96.016 158.735,95.821 157.533 C 94.789 151.191,96.672 135.565,99.108 130.250 C 99.877 128.572,100.606 126.787,100.727 126.285 C 101.870 121.552,113.050 108.977,116.115 108.977 C 116.244 108.977,116.833 108.474,117.425 107.858 C 118.838 106.388,119.815 105.905,122.840 105.182 C 124.221 104.852,125.989 104.217,126.767 103.771 C 129.421 102.248,129.941 102.041,132.183 101.620 C 136.128 100.880,151.973 101.186,154.607 102.053 M254.139 102.038 C 255.063 102.404,256.360 103.061,257.021 103.498 C 257.681 103.936,259.174 104.591,260.337 104.955 C 264.454 106.244,265.273 106.638,266.890 108.101 C 267.788 108.915,269.085 109.867,269.772 110.218 C 270.486 110.582,271.559 111.583,272.275 112.551 C 272.964 113.484,274.000 114.608,274.578 115.049 C 275.282 115.586,276.110 116.839,277.087 118.846 C 277.889 120.494,278.970 122.459,279.489 123.214 C 280.036 124.009,280.720 125.699,281.118 127.239 L 281.804 129.893 280.865 130.832 C 280.204 131.493,279.233 131.959,277.590 132.403 C 276.305 132.750,274.188 133.525,272.885 134.126 C 265.590 137.492,264.635 137.041,259.438 127.778 C 257.859 124.962,257.734 124.830,255.210 123.305 C 253.779 122.441,252.200 121.390,251.701 120.970 C 247.845 117.726,233.648 117.950,230.133 121.311 C 229.703 121.721,228.548 122.425,227.565 122.874 C 226.582 123.324,225.388 124.129,224.911 124.664 C 224.434 125.199,223.245 126.493,222.269 127.538 C 220.778 129.136,220.319 129.924,219.395 132.478 C 218.790 134.149,217.940 136.123,217.505 136.863 C 214.933 141.254,215.308 160.199,218.114 167.525 C 218.837 169.415,219.668 171.689,219.960 172.580 C 220.323 173.690,220.901 174.571,221.796 175.379 C 222.514 176.028,223.632 177.230,224.280 178.051 C 224.994 178.953,226.104 179.867,227.093 180.366 C 227.992 180.819,229.248 181.657,229.885 182.229 C 232.058 184.180,234.460 184.635,241.781 184.485 C 248.573 184.345,249.153 184.218,250.735 182.526 C 251.160 182.070,252.223 181.288,253.097 180.788 C 255.395 179.474,258.361 176.320,259.696 173.770 C 260.326 172.568,261.226 171.093,261.696 170.492 C 262.166 169.891,262.840 168.345,263.194 167.057 C 264.413 162.622,267.182 162.032,273.402 164.881 C 274.561 165.412,276.365 166.061,277.411 166.324 C 279.543 166.859,281.810 168.051,282.240 168.862 C 282.787 169.894,280.596 177.199,279.134 179.217 C 278.626 179.918,277.660 181.649,276.986 183.064 C 276.312 184.479,275.146 186.356,274.393 187.235 C 273.640 188.115,272.507 189.539,271.875 190.400 C 271.102 191.453,269.983 192.409,268.462 193.316 C 267.217 194.058,265.519 195.266,264.688 196.000 C 263.502 197.048,262.549 197.528,260.245 198.242 C 258.632 198.741,256.555 199.652,255.630 200.267 C 251.235 203.183,232.823 203.251,227.303 200.370 C 225.812 199.592,223.065 198.514,221.198 197.974 C 217.933 197.031,217.030 196.571,216.149 195.400 C 215.925 195.103,214.799 194.308,213.648 193.635 C 212.496 192.961,211.228 191.968,210.830 191.428 C 210.432 190.887,209.420 189.952,208.580 189.348 C 207.740 188.745,206.744 187.733,206.366 187.100 C 205.989 186.467,205.146 185.386,204.493 184.699 C 203.840 184.012,202.725 182.256,202.015 180.796 C 201.305 179.336,200.406 177.721,200.018 177.205 C 198.468 175.148,197.799 172.653,196.418 163.778 C 196.231 162.576,195.711 160.330,195.262 158.786 C 194.185 155.085,194.344 150.114,195.757 143.326 C 196.275 140.835,196.986 137.238,197.338 135.331 C 198.174 130.796,198.723 129.006,199.735 127.524 C 200.192 126.855,201.094 125.043,201.739 123.497 C 202.644 121.333,203.302 120.292,204.603 118.970 C 205.532 118.025,206.560 116.792,206.887 116.230 C 207.214 115.668,208.008 114.843,208.652 114.397 C 209.296 113.950,210.331 112.966,210.951 112.209 C 211.571 111.452,212.781 110.477,213.640 110.042 C 214.498 109.607,215.799 108.699,216.530 108.025 C 218.029 106.643,219.091 106.136,222.014 105.404 C 223.130 105.124,225.451 104.193,227.170 103.334 C 231.204 101.321,232.181 101.198,243.404 101.295 C 251.804 101.368,252.581 101.421,254.139 102.038 " stroke="none" fill="#fbfbfb" fill-rule="evenodd"></path></g></svg>